<mxfile host="Electron" agent="Mozilla/5.0 (Windows NT 10.0; Win64; x64) AppleWebKit/537.36 (KHTML, like Gecko) draw.io/24.7.17 Chrome/128.0.6613.36 Electron/32.0.1 Safari/537.36" version="24.7.17">
  <diagram name="Page-1" id="8u2nXm931TZs8AROHHU_">
    <mxGraphModel dx="1276" dy="606" grid="1" gridSize="10" guides="1" tooltips="1" connect="1" arrows="1" fold="1" page="1" pageScale="1" pageWidth="850" pageHeight="1100" math="0" shadow="0">
      <root>
        <mxCell id="0" />
        <mxCell id="1" parent="0" />
        <mxCell id="vhLsa56T31kByKQMCmfP-1" value="start" style="ellipse;whiteSpace=wrap;html=1;" parent="1" vertex="1">
          <mxGeometry x="20" y="60" width="150" height="60" as="geometry" />
        </mxCell>
        <mxCell id="vhLsa56T31kByKQMCmfP-2" value="" style="endArrow=classic;html=1;rounded=0;" parent="1" edge="1">
          <mxGeometry width="50" height="50" relative="1" as="geometry">
            <mxPoint x="100" y="120" as="sourcePoint" />
            <mxPoint x="100" y="180" as="targetPoint" />
          </mxGeometry>
        </mxCell>
        <mxCell id="vhLsa56T31kByKQMCmfP-5" value="nhập number abc" style="shape=parallelogram;perimeter=parallelogramPerimeter;whiteSpace=wrap;html=1;fixedSize=1;" parent="1" vertex="1">
          <mxGeometry x="20" y="180" width="150" height="60" as="geometry" />
        </mxCell>
        <mxCell id="vhLsa56T31kByKQMCmfP-6" value="" style="endArrow=classic;html=1;rounded=0;" parent="1" source="vhLsa56T31kByKQMCmfP-5" edge="1">
          <mxGeometry width="50" height="50" relative="1" as="geometry">
            <mxPoint x="230" y="320" as="sourcePoint" />
            <mxPoint x="240" y="210" as="targetPoint" />
            <Array as="points">
              <mxPoint x="190" y="210" />
            </Array>
          </mxGeometry>
        </mxCell>
        <mxCell id="vhLsa56T31kByKQMCmfP-7" value="99&amp;lt;abc&amp;lt;1000" style="rhombus;whiteSpace=wrap;html=1;" parent="1" vertex="1">
          <mxGeometry x="240" y="170" width="140" height="80" as="geometry" />
        </mxCell>
        <mxCell id="vhLsa56T31kByKQMCmfP-8" value="" style="endArrow=classic;html=1;rounded=0;exitX=1;exitY=0.5;exitDx=0;exitDy=0;" parent="1" source="vhLsa56T31kByKQMCmfP-7" edge="1">
          <mxGeometry width="50" height="50" relative="1" as="geometry">
            <mxPoint x="100" y="239" as="sourcePoint" />
            <mxPoint x="490" y="210" as="targetPoint" />
            <Array as="points" />
          </mxGeometry>
        </mxCell>
        <mxCell id="vhLsa56T31kByKQMCmfP-10" value="" style="endArrow=classic;html=1;rounded=0;exitX=0.5;exitY=1;exitDx=0;exitDy=0;entryX=0.5;entryY=0;entryDx=0;entryDy=0;" parent="1" source="vhLsa56T31kByKQMCmfP-7" edge="1">
          <mxGeometry width="50" height="50" relative="1" as="geometry">
            <mxPoint x="230" y="320" as="sourcePoint" />
            <mxPoint x="320" y="300" as="targetPoint" />
          </mxGeometry>
        </mxCell>
        <mxCell id="vhLsa56T31kByKQMCmfP-12" value="if false" style="text;html=1;align=center;verticalAlign=middle;resizable=0;points=[];autosize=1;strokeColor=none;fillColor=none;rotation=0;" parent="1" vertex="1">
          <mxGeometry x="310" y="260" width="60" height="30" as="geometry" />
        </mxCell>
        <mxCell id="vhLsa56T31kByKQMCmfP-16" value="if true" style="text;html=1;align=center;verticalAlign=middle;resizable=0;points=[];autosize=1;strokeColor=none;fillColor=none;" parent="1" vertex="1">
          <mxGeometry x="390" y="180" width="50" height="30" as="geometry" />
        </mxCell>
        <mxCell id="vhLsa56T31kByKQMCmfP-18" value="abc= a*100+b*10+c&lt;br&gt;reverse = c*100+b*10+a" style="rounded=0;whiteSpace=wrap;html=1;" parent="1" vertex="1">
          <mxGeometry x="490" y="180" width="130" height="60" as="geometry" />
        </mxCell>
        <mxCell id="vhLsa56T31kByKQMCmfP-19" value="end" style="ellipse;whiteSpace=wrap;html=1;" parent="1" vertex="1">
          <mxGeometry x="470" y="380" width="120" height="80" as="geometry" />
        </mxCell>
        <mxCell id="vhLsa56T31kByKQMCmfP-20" value="ko hợp lệ" style="shape=parallelogram;perimeter=parallelogramPerimeter;whiteSpace=wrap;html=1;fixedSize=1;" parent="1" vertex="1">
          <mxGeometry x="250" y="300" width="120" height="50" as="geometry" />
        </mxCell>
        <mxCell id="vhLsa56T31kByKQMCmfP-21" value="in ra cba" style="shape=parallelogram;perimeter=parallelogramPerimeter;whiteSpace=wrap;html=1;fixedSize=1;" parent="1" vertex="1">
          <mxGeometry x="480" y="290" width="120" height="50" as="geometry" />
        </mxCell>
        <mxCell id="vhLsa56T31kByKQMCmfP-22" value="" style="endArrow=classic;html=1;rounded=0;entryX=0.59;entryY=-0.068;entryDx=0;entryDy=0;entryPerimeter=0;exitX=0.443;exitY=1.003;exitDx=0;exitDy=0;exitPerimeter=0;" parent="1" source="vhLsa56T31kByKQMCmfP-18" target="vhLsa56T31kByKQMCmfP-21" edge="1">
          <mxGeometry width="50" height="50" relative="1" as="geometry">
            <mxPoint x="490" y="310" as="sourcePoint" />
            <mxPoint x="540" y="260" as="targetPoint" />
          </mxGeometry>
        </mxCell>
        <mxCell id="vhLsa56T31kByKQMCmfP-23" value="" style="endArrow=classic;html=1;rounded=0;entryX=0.56;entryY=-0.017;entryDx=0;entryDy=0;entryPerimeter=0;exitX=0.5;exitY=1;exitDx=0;exitDy=0;" parent="1" source="vhLsa56T31kByKQMCmfP-21" target="vhLsa56T31kByKQMCmfP-19" edge="1">
          <mxGeometry width="50" height="50" relative="1" as="geometry">
            <mxPoint x="490" y="310" as="sourcePoint" />
            <mxPoint x="540" y="260" as="targetPoint" />
          </mxGeometry>
        </mxCell>
        <mxCell id="vhLsa56T31kByKQMCmfP-24" value="" style="endArrow=classic;html=1;rounded=0;exitX=1;exitY=0.5;exitDx=0;exitDy=0;entryX=0.44;entryY=-0.007;entryDx=0;entryDy=0;entryPerimeter=0;" parent="1" source="vhLsa56T31kByKQMCmfP-20" target="vhLsa56T31kByKQMCmfP-19" edge="1">
          <mxGeometry width="50" height="50" relative="1" as="geometry">
            <mxPoint x="490" y="310" as="sourcePoint" />
            <mxPoint x="540" y="260" as="targetPoint" />
          </mxGeometry>
        </mxCell>
      </root>
    </mxGraphModel>
  </diagram>
</mxfile>
